<svg width="52" height="36" viewBox="0 0 52 36" xmlns="http://www.w3.org/2000/svg">
    <g fill-rule="nonzero" fill="none">
        <path d="M48.99 0H2.577A2.578 2.578 0 0 0 0 2.571V33.43A2.578 2.578 0 0 0 2.578 36H48.99a2.578 2.578 0 0 0 2.579-2.571V2.57A2.578 2.578 0 0 0 48.989 0z" fill="#4D4D4D"/>
        <path d="M12.892 34.276A50.41 50.41 0 0 1 0 32.613v.8A2.586 2.586 0 0 0 2.578 36H48.99a2.586 2.586 0 0 0 2.579-2.586V12.649C45.73 25.277 30.619 34.276 12.892 34.276z" fill="#3E3E3E"/>
        <path fill="#3EBBDD" d="M0 8.757h51.568v8.757H0z"/>
        <path d="M2.919 3.892H4.64v1.703H2.92V3.892zm3.443 0h1.721v1.703H6.362V3.892zm3.443 0h1.721v1.703H9.805V3.892zm3.442 0h1.722v1.703h-1.722V3.892zM46.815 27.73h-6.886a.869.869 0 0 1 .861 0v3.405h6.886V27.73a.869.869 0 0 1-.861 0zm-10.329 0h-6.885a.869.869 0 0 1 .86 0v3.405h6.886V27.73a.869.869 0 0 1-.86 0zM3.78 29.432h12.91v1.703H3.78v-1.703z" fill="#FFF"/>
    </g>
</svg>
