<svg width="14" height="21" viewBox="0 0 14 21" xmlns="http://www.w3.org/2000/svg">
    <g fill-rule="nonzero" fill="none">
        <path d="M6.563 0v7.587c0 .033-.034.065-.067.065-.235.098-.436.196-.67.294-.301.13-.636.26-.938.423l-1.105.488-.904.391-1.104.489c-.302.13-.603.26-.938.423-.234.098-.502.228-.737.326-.033 0-.033.032-.067 0H0c.1-.163.2-.294.301-.456.536-.88 1.105-1.759 1.641-2.638.57-.944 1.172-1.889 1.741-2.833.536-.88 1.071-1.759 1.607-2.605.402-.651.804-1.27 1.172-1.921.067 0 .067-.033.1-.033-.033 0 0 0 0 0z" fill="#8A92B2"/>
        <path d="M13.125 10.72c-.505.323-1.043.614-1.548.905-1.65.938-3.264 1.843-4.914 2.78-.033 0-.033.033-.067.033s-.034-.033-.034-.033V7.907c0-.032.034-.032.068-.032.134.065.269.13.437.194.404.194.842.356 1.245.55.37.161.707.323 1.077.452.37.162.707.323 1.077.485.303.13.64.259.943.42.303.13.64.259.942.42.236.098.471.227.74.324 0-.033 0 0 .034 0z" fill="#454A75"/>
        <path d="M6.563 21s-.034 0 0 0c-.034 0-.034 0-.068-.034-.673-.942-1.312-1.85-1.985-2.793l-2.02-2.827c-.639-.909-1.312-1.817-1.952-2.76l-.504-.706c0-.034-.034-.034-.034-.068.034 0 .034.034.067.034.909.539 1.851 1.077 2.76 1.616 1.043.639 2.12 1.245 3.163 1.884.169.101.37.202.539.303.034 0 .034.034.034.067V21z" fill="#8A92B2"/>
        <path d="M.304 10.804s.065 0 0 0c.065 0 .065 0 0 0 0 .065 0 .065 0 0z" fill="gray"/>
        <path d="M0 10.828c0-.033 0-.033 0 0 .34-.164.678-.295 1.017-.46l1.323-.59c.34-.164.678-.295 1.018-.46.474-.229.983-.426 1.458-.655.339-.132.678-.296 1.017-.427.238-.099.475-.197.713-.328.033 0 .033-.033.067-.033v6.694c-.034.033-.034 0-.067 0-.102-.066-.204-.099-.272-.164L.068 10.86C.034 10.828 0 10.828 0 10.828zm13.125 1.214c0 .033 0 .033-.034.066-1.967 2.69-3.934 5.348-5.901 8.039-.204.295-.407.558-.61.853V15.782c.44-.262.881-.524 1.322-.754l5.19-2.953c0-.033.033-.033.033-.033zM6.563 7.621V0l6.494 10.402c.034.033.068.065.068.098a5.597 5.597 0 0 0-.44-.196c-.169-.066-.338-.164-.507-.23-.102-.032-.203-.097-.338-.13-.17-.065-.373-.164-.542-.229-.101-.033-.203-.098-.304-.13l-.71-.295c-.136-.066-.237-.098-.373-.164-.169-.065-.338-.163-.507-.229-.101-.033-.203-.098-.304-.13l-.71-.295c-.136-.065-.238-.098-.373-.164-.17-.065-.338-.163-.507-.229-.102-.065-.237-.098-.339-.163l-.609-.295z" fill="#62688F"/>
    </g>
</svg>
