<svg width="19" height="20" viewBox="0 0 19 20" xmlns="http://www.w3.org/2000/svg">
    <g fill="#0A1567" fill-rule="nonzero">
        <path d="M18.47 7.861H7.248c-.265 0-.53.106-.741.317L4.547 10.13a.509.509 0 0 0 0 .738l1.959 1.953c.212.211.477.317.741.317h11.224c.317 0 .529-.211.529-.528V8.39c0-.317-.212-.528-.53-.528zM1 19.381V20h1.059v-.618a1.59 1.59 0 0 1-1.059 0zm0-7.388v4.403a1.59 1.59 0 0 1 1.059 0v-4.403a1.59 1.59 0 0 1-1.059 0zM2.059 1.618V1H1v.618a1.59 1.59 0 0 1 1.059 0zm-.53 3.076A1.59 1.59 0 0 1 1 4.604v4.403a1.59 1.59 0 0 1 1.059 0V4.604c-.166.059-.344.09-.53.09z"/>
        <path d="M2.069 4.12a1.578 1.578 0 0 0 1.034-1.488c0-.688-.432-1.272-1.034-1.49a1.525 1.525 0 0 0-1.035 0A1.578 1.578 0 0 0 0 2.633c0 .687.432 1.272 1.034 1.488a1.52 1.52 0 0 0 1.035 0zM1.034 8.511A1.578 1.578 0 0 0 0 10c0 .687.432 1.272 1.034 1.489a1.525 1.525 0 0 0 1.035 0 1.578 1.578 0 0 0 1.034-1.49c0-.687-.432-1.271-1.034-1.488a1.525 1.525 0 0 0-1.035 0zm0 7.368A1.578 1.578 0 0 0 0 17.37c0 .687.432 1.271 1.034 1.488a1.525 1.525 0 0 0 1.035 0 1.578 1.578 0 0 0 1.034-1.489c0-.687-.432-1.272-1.034-1.489a1.525 1.525 0 0 0-1.035 0zm12.932-1.142H7.138c-.259 0-.517.105-.724.315L4.5 17a.514.514 0 0 0 0 .737l1.914 1.947c.207.21.465.316.724.316h6.828c.31 0 .517-.21.517-.526v-4.21c0-.317-.207-.527-.517-.527zm-7.552-9.79c.206.21.465.316.724.316h7.345c.31 0 .517-.21.517-.526V.527C15 .21 14.793 0 14.483 0H7.138c-.259 0-.517.105-.724.316L4.5 2.263A.514.514 0 0 0 4.5 3l1.914 1.947z"/>
    </g>
</svg>
