<svg width="706" height="149" viewBox="0 0 706 149" xmlns="http://www.w3.org/2000/svg" xmlns:xlink="http://www.w3.org/1999/xlink">
    <defs>
        <filter x="-34.2%" y="-19.7%" width="180.6%" height="152.1%" filterUnits="objectBoundingBox" id="zpxwtaccfa">
            <feMorphology radius="2" operator="dilate" in="SourceAlpha" result="shadowSpreadOuter1"/>
            <feOffset dx="4" dy="6" in="shadowSpreadOuter1" result="shadowOffsetOuter1"/>
            <feGaussianBlur stdDeviation="6" in="shadowOffsetOuter1" result="shadowBlurOuter1"/>
            <feColorMatrix values="0 0 0 0 0.11372549 0 0 0 0 0.133333333 0 0 0 0 0.184313725 0 0 0 0.444493007 0" in="shadowBlurOuter1"/>
        </filter>
        <filter x="-34.2%" y="-19.7%" width="180.6%" height="152.1%" filterUnits="objectBoundingBox" id="g9bhvy4vhc">
            <feMorphology radius="2" operator="dilate" in="SourceAlpha" result="shadowSpreadOuter1"/>
            <feOffset dx="4" dy="6" in="shadowSpreadOuter1" result="shadowOffsetOuter1"/>
            <feGaussianBlur stdDeviation="6" in="shadowOffsetOuter1" result="shadowBlurOuter1"/>
            <feColorMatrix values="0 0 0 0 0.11372549 0 0 0 0 0.133333333 0 0 0 0 0.184313725 0 0 0 0.444493007 0" in="shadowBlurOuter1"/>
        </filter>
        <filter x="-34.2%" y="-19.7%" width="180.6%" height="152.1%" filterUnits="objectBoundingBox" id="mxcpsdlx2e">
            <feMorphology radius="2" operator="dilate" in="SourceAlpha" result="shadowSpreadOuter1"/>
            <feOffset dx="4" dy="6" in="shadowSpreadOuter1" result="shadowOffsetOuter1"/>
            <feGaussianBlur stdDeviation="6" in="shadowOffsetOuter1" result="shadowBlurOuter1"/>
            <feColorMatrix values="0 0 0 0 0.11372549 0 0 0 0 0.133333333 0 0 0 0 0.184313725 0 0 0 0.444493007 0" in="shadowBlurOuter1"/>
        </filter>
        <filter x="-34.2%" y="-19.7%" width="180.6%" height="152.1%" filterUnits="objectBoundingBox" id="rj5f7p786g">
            <feMorphology radius="2" operator="dilate" in="SourceAlpha" result="shadowSpreadOuter1"/>
            <feOffset dx="4" dy="6" in="shadowSpreadOuter1" result="shadowOffsetOuter1"/>
            <feGaussianBlur stdDeviation="6" in="shadowOffsetOuter1" result="shadowBlurOuter1"/>
            <feColorMatrix values="0 0 0 0 0.11372549 0 0 0 0 0.133333333 0 0 0 0 0.184313725 0 0 0 0.444493007 0" in="shadowBlurOuter1"/>
        </filter>
        <path d="m46.578 26.339 33.299-4.195c6.027-.76 11.529 3.511 12.288 9.539a11 11 0 0 1 .057 2.175l-4.964 68.026a14 14 0 0 1-12.696 12.924l-34.37 3.124c-5.5.5-10.365-3.554-10.865-9.054a10 10 0 0 1-.013-1.646l5.053-68.04a14 14 0 0 1 12.211-12.853z" id="08gzj866tb"/>
        <path d="m627.578 26.339 33.299-4.195c6.027-.76 11.529 3.511 12.288 9.539a11 11 0 0 1 .057 2.175l-4.964 68.026a14 14 0 0 1-12.696 12.924l-34.37 3.124c-5.5.5-10.365-3.554-10.865-9.054a10 10 0 0 1-.013-1.646l5.053-68.04a14 14 0 0 1 12.211-12.853z" id="ez533hudid"/>
        <path d="m18.139 5.873 33.298-4.195c6.027-.759 11.53 3.512 12.289 9.54a11 11 0 0 1 .057 2.175l-4.965 68.026a14 14 0 0 1-12.695 12.923l-34.371 3.124c-5.5.5-10.365-3.553-10.864-9.053a10 10 0 0 1-.014-1.646l5.053-68.04A14 14 0 0 1 18.139 5.872z" id="h7zw09050f"/>
        <path d="m29.139 5.873 33.298-4.195c6.027-.759 11.53 3.512 12.289 9.54a11 11 0 0 1 .057 2.175l-4.965 68.026a14 14 0 0 1-12.695 12.923l-34.371 3.124c-5.5.5-10.365-3.553-10.864-9.053a10 10 0 0 1-.014-1.646l5.053-68.04A14 14 0 0 1 29.139 5.872z" id="fw0mow56wh"/>
    </defs>
    <g fill="none" fill-rule="evenodd">
        <g fill="#81A0EE" fill-rule="nonzero">
            <path d="M324.79 46v-5.7c0-.8 0-2.02-.12-3.42l5.02 9.12h4.7V32.2h-3.6v5.9c0 .8.02 2.22.12 3.62l-5.24-9.52h-4.48V46h3.6zm17.88 0v-5.52h6.18v-2.8h-6.18V35h6.78v-2.8h-10.38V46h3.6zm17.46 0V35h4.48v-2.8h-12.56V35h4.48v11h3.6z"/>
            <path d="m389.936 52.348-6.92-27.714a3.46 3.46 0 0 0-3.46-2.633h-76.113a3.46 3.46 0 0 0-3.46 2.633l-6.919 27.714a3.78 3.78 0 0 0 0 1.386 17.328 17.328 0 0 0 6.92 13.303v48.499a3.462 3.462 0 0 0 3.46 3.464h24.217V87.822a3.462 3.462 0 0 1 3.46-3.464h20.758c1.91 0 3.46 1.55 3.46 3.464V119h24.218c1.91 0 3.46-1.551 3.46-3.464v-48.5a17.328 17.328 0 0 0 6.919-13.302 3.78 3.78 0 0 0 0-1.386zm-12.213 9.943a10.161 10.161 0 0 1-5.086 1.281 10.38 10.38 0 0 1-9.79-6.928h19.581a10.389 10.389 0 0 1-4.809 5.647h.104zM341.5 63.572a10.38 10.38 0 0 1-9.791-6.928h19.582a10.38 10.38 0 0 1-9.791 6.928zm-40.928-6.928h19.582a10.38 10.38 0 0 1-9.791 6.928 10.161 10.161 0 0 1-4.982-1.281 10.389 10.389 0 0 1-4.81-5.647zm5.57-27.714h70.716l5.19 20.785h-81.096l5.19-20.785z"/>
        </g>
        <g transform="translate(12 9)">
            <use fill="#000" filter="url(#zpxwtaccfa)" xlink:href="#08gzj866tb"/>
            <use fill="#81A0EE" xlink:href="#08gzj866tb"/>
        </g>
        <g transform="translate(12 9)">
            <use fill="#000" filter="url(#g9bhvy4vhc)" xlink:href="#ez533hudid"/>
            <use fill="#81A0EE" xlink:href="#ez533hudid"/>
        </g>
        <g transform="translate(12 9)">
            <use fill="#000" filter="url(#mxcpsdlx2e)" xlink:href="#h7zw09050f"/>
            <use fill="#81A0EE" xlink:href="#h7zw09050f"/>
        </g>
        <g fill="#0A0B0B" fill-rule="nonzero">
            <path d="M46.717 73.755h-.344l-.523-1.79h-1.283l.527 1.79H40.91l.528-1.79h-1.283l-.523 1.79h-.344c-.45 0-.818.379-.818.843v1.766C38.47 78.374 40.049 80 42 80h2.005c1.951 0 3.53-1.626 3.53-3.636v-1.766a.833.833 0 0 0-.818-.843zm-8.03-5.497c-3.22-7.382-6.77-16.685-6.77-21.928 0-6.165 2.194-10.19 5.192-12.33C31.753 35.72 28 39.95 28 46.33c0 5.323 5.835 15.274 10.228 22.003.145-.045.3-.075.46-.075zm15.4-21.928c0 5.243-3.55 14.546-6.765 21.928.16 0 .31.03.455.075C52.17 61.604 58 51.653 58 46.33c0-6.38-3.748-10.61-9.104-12.33 2.998 2.14 5.191 6.165 5.191 12.33zM41.683 68.277h2.631c1.199-6.755 2.778-16.684 2.778-22.007 0-8.568-1.831-13.27-4.09-13.27-2.26 0-4.092 4.702-4.092 13.27 0 5.323 1.58 15.252 2.773 22.007zm5.499 1c-.775 0 1.517-.007-8.364 0-.452 0-.818.386-.818.862 0 .475.366.861.818.861h8.364c.452 0 .818-.386.818-.861 0-.476-.366-.861-.818-.861z"/>
        </g>
        <g transform="translate(582 9)">
            <use fill="#000" filter="url(#rj5f7p786g)" xlink:href="#fw0mow56wh"/>
            <use fill="#81A0EE" xlink:href="#fw0mow56wh"/>
        </g>
        <path fill="#000" d="M640.346 55.667v13.684l-15.803 7.818-15.802-7.818V55.667l15.802-7.82z"/>
        <path fill="#000" d="M624.543 47.847v29.322l-15.802-7.818V55.667zM646.274 48.825l-5.928 6.84-15.803-7.817 5.926-6.844z"/>
        <path fill="#000" d="m602.821 48.82 5.928 6.841 15.803-7.818L618.626 41z"/>
        <path d="M613.684 54.437c0-5.937 4.864-10.75 10.863-10.75 6 0 10.864 4.813 10.864 10.75s-4.864 10.75-10.864 10.75c-6 0-10.863-4.813-10.863-10.75z" fill="#81A0EE" fill-rule="nonzero"/>
        <path fill="#000" d="m640.346 69.35-15.803 7.82V63.486l15.803-7.82zM608.738 69.35l15.805 7.82V63.486l-15.805-7.82z"/>
        <path fill="#000" d="m640.346 55.666 5.928 4.887-15.805 7.82-5.926-4.887z"/>
        <path fill="#000" d="m608.749 55.661-5.928 4.887 15.805 7.82 5.926-4.886z"/>
        <text font-family="Aileron-Black, Aileron" font-size="18" font-weight="700" fill="#0A0B0B" transform="translate(582 41)">
                            <tspan x="37.699" y="17.896">?</tspan>
                        </text>
        <g fill-rule="nonzero" stroke="#81A0EE" stroke-width="1.4">
            <path d="M150.89 74 131 88.038 150.782 102l.027-6.683 68.477-.036-.008-14.336-68.414.036.026-6.981zM243.396 48l19.89 14.038L243.504 76l-.027-6.683L175 69.281l.008-14.336 68.414.036-.026-6.981z"/>
        </g>
        <g fill-rule="nonzero" stroke="#81A0EE" stroke-width="1.4">
            <path d="m540.396 74 19.89 14.038L540.504 102l-.027-6.683L472 95.281l.008-14.336 68.414.036-.026-6.981zM447.89 48 428 62.038 447.782 76l.027-6.683 68.477-.036-.008-14.336-68.414.036.026-6.981z"/>
        </g>
    </g>
</svg>
