<svg width="46" height="46" viewBox="0 0 46 46" xmlns="http://www.w3.org/2000/svg">
    <g fill="none" fill-rule="evenodd">
        <circle fill="#FF0096" cx="23" cy="23" r="23"/>
        <path d="M26.667 14.248a1.016 1.016 0 0 0-1.331 0l-7.784 7.025A1.608 1.608 0 0 0 17 22.474c0 .454.2.889.552 1.202l7.84 7.076c.364.327.953.331 1.322.008a.806.806 0 0 0 .286-.603.804.804 0 0 0-.277-.608l-7.175-6.474a.804.804 0 0 1-.276-.601c0-.227.1-.445.276-.601l7.118-6.424a.803.803 0 0 0 .276-.6c0-.227-.1-.444-.276-.6" fill="#FFF"/>
    </g>
</svg>
